<svg width="20" height="21" viewBox="0 0 20 21" fill="none" xmlns="http://www.w3.org/2000/svg">
<path d="M18.9994 14.9767V17.6864C19.0036 18.7223 18.0722 19.5873 17.0264 19.4929C8 19.5 1 12.435 1.00706 3.46919C0.912875 2.42895 1.77358 1.50106 2.80811 1.50009H5.52325C5.96247 1.49577 6.38828 1.651 6.72131 1.93684C7.66813 2.74949 8.27713 5.50777 8.04281 6.60428C7.85987 7.46036 6.9969 8.05929 6.41019 8.64484C7.69858 10.9062 9.57465 12.7785 11.8405 14.0644C12.4272 13.4788 13.0273 12.6176 13.8851 12.435C14.9855 12.2008 17.7615 12.8106 18.5709 13.764C18.8579 14.1021 19.0104 14.5337 18.9994 14.9767Z" stroke="white" stroke-width="1.5" stroke-linecap="round" stroke-linejoin="round"/>
</svg>
