<svg width="91" height="91" viewBox="0 0 91 91" fill="none" xmlns="http://www.w3.org/2000/svg">
<path d="M36.4166 9.16658C21.3668 9.16658 9.16658 21.3668 9.16658 36.4166C9.16658 51.4663 21.3668 63.6666 36.4166 63.6666C51.4663 63.6666 63.6666 51.4663 63.6666 36.4166C63.6666 21.3668 51.4663 9.16658 36.4166 9.16658ZM0.083252 36.4166C0.083252 16.3502 16.3502 0.083252 36.4166 0.083252C56.4829 0.083252 72.7499 16.3502 72.7499 36.4166C72.7499 44.8128 69.9019 52.5439 65.1193 58.6964L89.5864 83.1635C91.36 84.9371 91.36 87.8127 89.5864 89.5864C87.8127 91.36 84.9371 91.36 83.1635 89.5864L58.6964 65.1193C52.5439 69.9019 44.8128 72.7499 36.4166 72.7499C16.3502 72.7499 0.083252 56.4829 0.083252 36.4166ZM36.4166 22.7916C38.9249 22.7916 40.9583 24.825 40.9583 27.3333V31.8749H45.4999C48.0082 31.8749 50.0416 33.9083 50.0416 36.4166C50.0416 38.9249 48.0082 40.9583 45.4999 40.9583H40.9583V45.4999C40.9583 48.0082 38.9249 50.0416 36.4166 50.0416C33.9083 50.0416 31.8749 48.0082 31.8749 45.4999V40.9583H27.3333C24.825 40.9583 22.7916 38.9249 22.7916 36.4166C22.7916 33.9083 24.825 31.8749 27.3333 31.8749H31.8749V27.3333C31.8749 24.825 33.9083 22.7916 36.4166 22.7916Z" fill="white"/>
</svg>
